<svg id="Layer_1" data-name="Layer 1" xmlns="http://www.w3.org/2000/svg" viewBox="0 0 293.75 169.31"><defs><style>.cls-1{fill:none;stroke:#c02026;stroke-miterlimit:10;stroke-width:4.25px;}</style></defs><rect class="cls-1" x="161.86" y="320.9" width="288.89" height="164.49" transform="translate(453.48 487.51) rotate(-180)"/><polygon class="cls-1" points="223.32 44.03 187.17 44.03 166.76 62.31 166.76 103.81 186.98 123.53 223.32 123.53 244.81 102.64 244.81 62.02 223.32 44.03"/><polygon class="cls-1" points="164.71 44.03 128.56 44.03 108.15 62.31 108.15 103.81 128.37 123.53 164.71 123.53 186.2 102.64 186.2 62.02 164.71 44.03"/><polygon class="cls-1" points="102.33 44.03 66.18 44.03 45.77 62.31 45.77 103.81 65.99 123.53 102.33 123.53 123.82 102.64 123.82 62.02 102.33 44.03"/><rect class="cls-1" x="183.57" y="344.04" width="246.91" height="120.2" transform="translate(454.92 489.5) rotate(-180)"/><polyline class="cls-1" points="4.86 123.53 41.2 123.53 62.7 102.64 62.7 62.02 41.2 44.03 5.05 44.03"/><polyline class="cls-1" points="287.69 123.53 251.34 123.53 229.85 102.64 229.85 62.02 251.34 44.03 287.49 44.03"/><rect class="cls-1" x="409.99" y="321.6" width="39.58" height="41.21" transform="translate(700.43 365.64) rotate(-180)"/><rect class="cls-1" x="346.02" y="321.6" width="36.89" height="41.21" transform="translate(569.81 365.64) rotate(-180)"/><rect class="cls-1" x="287.12" y="321.25" width="37.13" height="41.21" transform="translate(452.24 364.93) rotate(-180)"/><rect class="cls-1" x="224.74" y="321.25" width="38.37" height="41.21" transform="translate(328.72 364.93) rotate(-180)"/><rect class="cls-1" x="161.25" y="320.9" width="39.87" height="41.91" transform="translate(203.25 364.93) rotate(-180)"/><rect class="cls-1" x="409.25" y="442.18" width="41.21" height="43.76" transform="translate(700.59 609.35) rotate(-180)"/><rect class="cls-1" x="346.45" y="442.51" width="36.43" height="43.45" transform="translate(570.19 609.69) rotate(-180)"/><rect class="cls-1" x="287.54" y="442.51" width="36.74" height="43.43" transform="translate(452.7 609.68) rotate(-180)"/><rect class="cls-1" x="225.63" y="442.31" width="36.43" height="43.63" transform="translate(328.58 609.48) rotate(-180)"/><rect class="cls-1" x="162.15" y="442.31" width="38.07" height="43.63" transform="translate(203.24 609.48) rotate(-180)"/><line class="cls-1" x1="144.62" y1="0.96" x2="144.62" y2="166.61"/><line class="cls-1" x1="85.43" y1="1.51" x2="85.43" y2="167.17"/><line class="cls-1" x1="206.08" y1="2.48" x2="206.08" y2="168.13"/><line class="cls-1" x1="291.34" y1="84.34" x2="4.86" y2="84.34"/><line class="cls-1" x1="291.14" y1="102.9" x2="4.66" y2="102.9"/><line class="cls-1" x1="291.14" y1="62.29" x2="4.66" y2="62.29"/></svg>